<?xml version="1.0" encoding="UTF-8" standalone="no"?>
<!-- Created with Inkscape (http://www.inkscape.org/) -->

<svg
   xmlns:dc="http://purl.org/dc/elements/1.1/"
   xmlns:cc="http://creativecommons.org/ns#"
   xmlns:rdf="http://www.w3.org/1999/02/22-rdf-syntax-ns#"
   xmlns:svg="http://www.w3.org/2000/svg"
   xmlns="http://www.w3.org/2000/svg"
   xmlns:sodipodi="http://sodipodi.sourceforge.net/DTD/sodipodi-0.dtd"
   xmlns:inkscape="http://www.inkscape.org/namespaces/inkscape"
   version="1.1"
   id="svg2"
   xml:space="preserve"
   width="253.44832"
   height="547.09863"
   viewBox="0 0 253.44832 547.09864"
   sodipodi:docname="PDPvsKDE.svg"
   inkscape:version="0.92.3 (2405546, 2018-03-11)"
   inkscape:export-filename="/home/pvermees/Dropbox/Programming/R/WiscAr/paper/PDPvsKDE.png"
   inkscape:export-xdpi="95.973198"
   inkscape:export-ydpi="95.973198"><metadata
     id="metadata8"><rdf:RDF><cc:Work
         rdf:about=""><dc:format>image/svg+xml</dc:format><dc:type
           rdf:resource="http://purl.org/dc/dcmitype/StillImage" /><dc:title /></cc:Work></rdf:RDF></metadata><defs
     id="defs6"><clipPath
       clipPathUnits="userSpaceOnUse"
       id="clipPath20"><path
         d="m 38.97,384.09 h 192.7 v 80.37 H 38.97 Z"
         id="path18"
         inkscape:connector-curvature="0" /></clipPath><clipPath
       clipPathUnits="userSpaceOnUse"
       id="clipPath110"><path
         d="M 0,335.62 H 251.62 V 503.43 H 0 Z"
         id="path108"
         inkscape:connector-curvature="0" /></clipPath><clipPath
       clipPathUnits="userSpaceOnUse"
       id="clipPath126"><path
         d="m 290.59,384.09 h 192.7 v 80.37 h -192.7 z"
         id="path124"
         inkscape:connector-curvature="0" /></clipPath><clipPath
       clipPathUnits="userSpaceOnUse"
       id="clipPath168"><path
         d="M 251.62,335.62 H 503.24 V 503.43 H 251.62 Z"
         id="path166"
         inkscape:connector-curvature="0" /></clipPath><clipPath
       clipPathUnits="userSpaceOnUse"
       id="clipPath180"><path
         d="m 290.59,384.09 h 192.7 v 80.37 h -192.7 z"
         id="path178"
         inkscape:connector-curvature="0" /></clipPath><clipPath
       clipPathUnits="userSpaceOnUse"
       id="clipPath236"><path
         d="m 290.59,384.09 h 192.7 v 80.37 h -192.7 z"
         id="path234"
         inkscape:connector-curvature="0" /></clipPath><clipPath
       clipPathUnits="userSpaceOnUse"
       id="clipPath254"><path
         d="m 38.97,216.28 h 192.7 v 80.37 H 38.97 Z"
         id="path252"
         inkscape:connector-curvature="0" /></clipPath><clipPath
       clipPathUnits="userSpaceOnUse"
       id="clipPath328"><path
         d="M 0,167.81 H 251.62 V 335.62 H 0 Z"
         id="path326"
         inkscape:connector-curvature="0" /></clipPath><clipPath
       clipPathUnits="userSpaceOnUse"
       id="clipPath344"><path
         d="m 290.59,216.28 h 192.7 v 80.37 h -192.7 z"
         id="path342"
         inkscape:connector-curvature="0" /></clipPath><clipPath
       clipPathUnits="userSpaceOnUse"
       id="clipPath386"><path
         d="M 251.62,167.81 H 503.24 V 335.62 H 251.62 Z"
         id="path384"
         inkscape:connector-curvature="0" /></clipPath><clipPath
       clipPathUnits="userSpaceOnUse"
       id="clipPath398"><path
         d="m 290.59,216.28 h 192.7 v 80.37 h -192.7 z"
         id="path396"
         inkscape:connector-curvature="0" /></clipPath><clipPath
       clipPathUnits="userSpaceOnUse"
       id="clipPath462"><path
         d="m 290.59,216.28 h 192.7 v 80.37 h -192.7 z"
         id="path460"
         inkscape:connector-curvature="0" /></clipPath><clipPath
       clipPathUnits="userSpaceOnUse"
       id="clipPath480"><path
         d="m 38.97,48.47 h 192.7 v 80.37 H 38.97 Z"
         id="path478"
         inkscape:connector-curvature="0" /></clipPath><clipPath
       clipPathUnits="userSpaceOnUse"
       id="clipPath548"><path
         d="M 0,0 H 251.62 V 167.81 H 0 Z"
         id="path546"
         inkscape:connector-curvature="0" /></clipPath></defs><sodipodi:namedview
     pagecolor="#ffffff"
     bordercolor="#666666"
     borderopacity="1"
     objecttolerance="10"
     gridtolerance="10"
     guidetolerance="10"
     inkscape:pageopacity="0"
     inkscape:pageshadow="2"
     inkscape:window-width="2560"
     inkscape:window-height="1416"
     id="namedview4"
     showgrid="false"
     showguides="true"
     inkscape:guide-bbox="true"
     inkscape:zoom="2.3067139"
     inkscape:cx="-77.245652"
     inkscape:cy="280.3731"
     inkscape:window-x="0"
     inkscape:window-y="24"
     inkscape:window-maximized="1"
     inkscape:current-layer="g10"
     fit-margin-top="0"
     fit-margin-left="0"
     fit-margin-right="0"
     fit-margin-bottom="0" /><g
     id="g10"
     inkscape:groupmode="layer"
     inkscape:label="PDPvsKDE"
     transform="matrix(1.3333333,0,0,-1.3333333,-358.51956,706.73331)"><path
   inkscape:connector-curvature="0"
   id="path26"
   style="fill:#ff0000;fill-opacity:1;stroke:#000000;stroke-width:0.67050004;stroke-linecap:round;stroke-linejoin:round;stroke-miterlimit:10;stroke-dasharray:none;stroke-opacity:1"
   d="M 431.41217,473.60999 H 296.89805 l 0.67849,0.008 h 0.67849 0.67095 l 0.67849,0.008 0.67848,0.008 0.67095,0.0151 0.67849,0.0301 0.67849,0.0452 0.67095,0.0829 0.67849,0.12816 0.67849,0.22616 0.67095,0.35432 0.67849,0.55787 0.67848,0.8368 0.67095,1.21375 0.67849,1.69622 0.67849,2.29932 0.67095,3.00043 0.67849,3.7543 0.67849,4.50818 0.67095,5.20174 0.67849,5.70685 0.67849,5.96316 0.67095,5.86515 0.67848,5.36006 0.67849,4.44787 0.67095,3.17382 0.67849,1.6133 0.67849,-0.0829 0.67095,-1.77161 0.67849,-3.2869 0.67849,-4.52326 0.67095,-5.37513 0.67848,-5.81993 0.67095,-5.85008 0.67849,-5.5636 0.67849,-5.01328 0.67095,-4.30463 0.67849,-3.52814 0.67849,-2.7818 0.67095,-2.08824 0.67849,-1.49268 0.67848,-1.01019 0.67095,-0.64833 0.67849,-0.36186 0.67849,-0.1734 0.67095,-0.0301 0.67849,0.0603 0.67849,0.12816 0.67095,0.17339 0.67849,0.19601 0.67849,0.22616 0.67095,0.24124 0.67848,0.26386 0.67849,0.27893 0.67095,0.30155 0.67849,0.30909 0.67849,0.33171 0.67095,0.34678 0.67849,0.3694 0.67849,0.37694 0.67095,0.40709 0.67848,0.41463 0.67849,0.43725 0.67095,0.45986 0.67849,0.47495 0.67849,0.49002 0.67095,0.51263 0.67849,0.53525 0.67849,0.54279 0.67095,0.56541 0.67848,0.58049 0.67849,0.6031 0.67095,0.61064 0.67849,0.63325 0.67849,0.6408 0.67095,0.65587 0.67849,0.66341 0.67849,0.67849 0.67095,0.69357 0.67849,0.69356 0.67848,0.70111 0.67095,0.71618 0.67849,0.70864 0.67849,0.71618 0.67095,0.71619 0.67849,0.71618 0.67849,0.70864 0.67095,0.70865 0.67849,0.69356 0.67848,0.69357 0.67095,0.67849 0.67849,0.67095 0.67849,0.64833 0.67095,0.63326 0.67849,0.61817 0.67095,0.59557 0.67849,0.57294 0.67849,0.54279 0.67095,0.52018 0.67848,0.49756 0.67849,0.45986 0.67095,0.42971 0.67849,0.39955 0.67849,0.36187 0.67095,0.32416 0.67849,0.29401 0.67849,0.24878 0.67095,0.21109 0.67849,0.17339 0.67848,0.1357 0.67095,0.0905 0.67849,0.0528 0.67849,0.008 0.67095,-0.0302 0.67849,-0.0754 0.67849,-0.11308 0.67095,-0.15832 0.67849,-0.196 0.67848,-0.2337 0.67095,-0.27894 0.67849,-0.30909 0.67849,-0.34678 0.67095,-0.38448 0.67849,-0.41463 0.67849,-0.45233 0.67095,-0.47494 0.67849,-0.51263 0.67848,-0.53526 0.67095,-0.55786 0.67849,-0.58803 0.67849,-0.6031 0.67095,-0.63325 0.67849,-0.6408 0.67849,-0.66341 0.67095,-0.67095 0.67849,-0.68603 0.67849,-0.69356 0.67095,-0.70865 0.67848,-0.70864 0.67849,-0.70864 0.67095,-0.71619 0.67849,-0.71618 0.67849,-0.71618 0.67095,-0.70864 0.67849,-0.70865 0.67849,-0.7011 0.67095,-0.69357 0.67848,-0.67849 0.67849,-0.67095 0.67095,-0.66341 0.67849,-0.64833 0.67849,-0.63326 0.67095,-0.62571 0.67849,-0.60311 0.67849,-0.58802 0.67095,-0.57295 0.67848,-0.55786 0.67849,-0.53526 0.67095,-0.52017 0.67849,-0.49756 0.67095,-0.48248 0.67849,-0.4674 0.67849,-0.44479 0.67095,-0.42971 0.67849,-0.40709 0.67849,-0.39202 0.67094,-0.3694 0.67849,-0.35432 0.67849,-0.33924 0.67095,-0.32417 0.67849,-0.30155 0.67849,-0.28647 0.67095,-0.2714 0.67849,-0.25632 0.67849,-0.24124 0.67095,-0.2337 0.67848,-0.21108 0.67849,-0.20355 0.67095,-0.18093 0.67849,-0.18093 0.67849,-0.16585 0.67095,-0.15078 0.67849,-0.14323 0.67849,-0.12816 0.67095,-0.12816 0.67848,-0.11308 0.67849,-0.10555 0.67095,-0.098 0.67849,-0.0905 0.67849,-0.0829 0.67095,-0.0754 0.67849,-0.0679 0.67849,-0.0678 0.67095,-0.0528 0.67849,-0.0603 0.67848,-0.0452 0.67095,-0.0452 23.17849,-0.0452"
   sodipodi:nodetypes="ccccccccccccccccccccccccccccccccccccccccccccccccccccccccccccccccccccccccccccccccccccccccccccccccccccccccccccccccccccccccccccccccccccccccccccccccccccccccccccccccccccccccccccccccccccccccccccccccccccccccc" /><path
   inkscape:connector-curvature="0"
   id="path130"
   style="fill:none;stroke:#000000;stroke-width:0.75;stroke-linecap:round;stroke-linejoin:round;stroke-miterlimit:10;stroke-dasharray:none;stroke-opacity:1"
   d="M 297.73,150.09 H 451.35" /><path
   inkscape:connector-curvature="0"
   id="path132"
   style="fill:none;stroke:#000000;stroke-width:0.75;stroke-linecap:round;stroke-linejoin:round;stroke-miterlimit:10;stroke-dasharray:none;stroke-opacity:1"
   d="m 297.73,150.09 v -4.75" /><path
   inkscape:connector-curvature="0"
   id="path134"
   style="fill:none;stroke:#000000;stroke-width:0.75;stroke-linecap:round;stroke-linejoin:round;stroke-miterlimit:10;stroke-dasharray:none;stroke-opacity:1"
   d="m 336.13,150.09 v -4.75" /><path
   inkscape:connector-curvature="0"
   id="path136"
   style="fill:none;stroke:#000000;stroke-width:0.75;stroke-linecap:round;stroke-linejoin:round;stroke-miterlimit:10;stroke-dasharray:none;stroke-opacity:1"
   d="m 374.54,150.09 v -4.75" /><path
   inkscape:connector-curvature="0"
   id="path138"
   style="fill:none;stroke:#000000;stroke-width:0.75;stroke-linecap:round;stroke-linejoin:round;stroke-miterlimit:10;stroke-dasharray:none;stroke-opacity:1"
   d="m 412.95,150.09 v -4.75" /><path
   inkscape:connector-curvature="0"
   id="path140"
   style="fill:none;stroke:#000000;stroke-width:0.75;stroke-linecap:round;stroke-linejoin:round;stroke-miterlimit:10;stroke-dasharray:none;stroke-opacity:1"
   d="m 451.35,150.09 v -4.75" /><text
   id="text144"
   style="font-variant:normal;font-weight:normal;font-size:8px;font-family:Helvetica;-inkscape-font-specification:Helvetica;writing-mode:lr-tb;fill:#000000;fill-opacity:1;fill-rule:nonzero;stroke:none"
   transform="scale(1,-1)"
   x="295.5"
   y="-132.98001"><tspan
     id="tspan142"
     y="-132.98001"
     x="295.5">0</tspan></text>



<text
   id="text148"
   style="font-variant:normal;font-weight:normal;font-size:8px;font-family:Helvetica;-inkscape-font-specification:Helvetica;writing-mode:lr-tb;fill:#000000;fill-opacity:1;fill-rule:nonzero;stroke:none"
   transform="scale(1,-1)"
   x="329.45999"
   y="-132.98001"><tspan
     id="tspan146"
     sodipodi:role="line"
     y="-132.98001"
     x="329.45999 333.90799 338.35599">100</tspan></text>



<text
   id="text152"
   style="font-variant:normal;font-weight:normal;font-size:8px;font-family:Helvetica;-inkscape-font-specification:Helvetica;writing-mode:lr-tb;fill:#000000;fill-opacity:1;fill-rule:nonzero;stroke:none"
   transform="scale(1,-1)"
   x="367.87"
   y="-132.98001"><tspan
     id="tspan150"
     sodipodi:role="line"
     y="-132.98001"
     x="367.87 372.31799 376.76599">200</tspan></text>



<text
   id="text156"
   style="font-variant:normal;font-weight:normal;font-size:8px;font-family:Helvetica;-inkscape-font-specification:Helvetica;writing-mode:lr-tb;fill:#000000;fill-opacity:1;fill-rule:nonzero;stroke:none"
   transform="scale(1,-1)"
   x="406.26999"
   y="-132.98001"><tspan
     id="tspan154"
     sodipodi:role="line"
     y="-132.98001"
     x="406.26999 410.71799 415.16599">300</tspan></text>



<text
   id="text160"
   style="font-variant:normal;font-weight:normal;font-size:8px;font-family:Helvetica;-inkscape-font-specification:Helvetica;writing-mode:lr-tb;fill:#000000;fill-opacity:1;fill-rule:nonzero;stroke:none"
   transform="scale(1,-1)"
   x="444.67999"
   y="-132.98001"><tspan
     id="tspan158"
     sodipodi:role="line"
     y="-132.98001"
     x="444.67999 449.12799 453.57599">400</tspan></text>



<text
   transform="scale(1,-1)"
   style="font-variant:normal;font-weight:normal;font-size:8px;font-family:Helvetica;-inkscape-font-specification:Helvetica;writing-mode:lr-tb;fill:#000000;fill-opacity:1;fill-rule:nonzero;stroke:none"
   id="text172"
   x="362.38"
   y="-121.47"><tspan
     x="362.38 366.828 371.276 375.724 377.948 380.172 386.836 391.284"
     y="-121.47"
     sodipodi:role="line"
     id="tspan170">age [Ma]</tspan></text>



<path
   d="M 453.85,387.06 Z"
   style="fill:#01ff00;fill-opacity:0.2;fill-rule:nonzero;stroke:#000000;stroke-width:0.75;stroke-linecap:round;stroke-linejoin:round;stroke-miterlimit:10;stroke-dasharray:none;stroke-opacity:1"
   id="path196"
   inkscape:connector-curvature="0"
   sodipodi:nodetypes="cc" />


<path
   d="m 296.23,387.06 1.5,1.14 0.35,0.07 0.35,0.07 0.35,0.08 0.35,0.08 0.34,0.09 0.35,0.1 0.35,0.11 0.35,0.12 0.35,0.13 0.35,0.14 0.35,0.15 0.35,0.17 0.35,0.19 0.35,0.21 0.35,0.24 0.35,0.26 0.34,0.3 0.35,0.34 0.35,0.38 0.35,0.44 0.35,0.49 0.35,0.58 0.35,0.65 0.35,0.75 0.35,0.87 0.35,0.98 0.35,1.12 0.35,1.26 0.34,1.43 0.35,1.6 0.35,1.77 0.35,1.97 0.35,2.15 0.35,2.33 0.35,2.51 0.35,2.68 0.35,2.83 0.35,2.96 0.35,3.08 0.35,3.16 0.34,3.2 0.35,3.21 0.35,3.2 0.35,3.14 0.35,3.06 0.35,2.91 0.35,2.76 0.35,2.58 0.35,2.35 0.35,2.09 0.35,1.82 0.35,1.51 0.34,1.18 0.35,0.85 0.35,0.47 0.35,0.11 0.35,-0.31 0.35,-0.71 0.35,-1.1 0.35,-1.47 0.35,-1.83 0.35,-2.15 0.35,-2.46 0.35,-2.73 0.34,-2.96 0.35,-3.15 0.35,-3.28 0.35,-3.37 0.35,-3.41 0.35,-3.42 0.35,-3.38 0.35,-3.3 0.35,-3.19 0.35,-3.05 0.35,-2.87 0.35,-2.68 0.34,-2.48 0.35,-2.28 0.35,-2.07 0.35,-1.88 0.35,-1.67 0.35,-1.48 0.35,-1.29 0.35,-1.13 0.35,-0.96 0.35,-0.83 0.35,-0.69 0.35,-0.58 0.34,-0.47 0.35,-0.39 0.35,-0.32 0.35,-0.24 0.35,-0.18 0.35,-0.14 0.35,-0.09 0.35,-0.05 0.35,-0.03 h 0.35 l 0.35,0.03 0.35,0.04 0.34,0.06 0.35,0.07 0.35,0.08 0.35,0.09 0.35,0.1 0.35,0.11 0.35,0.1 0.35,0.12 0.35,0.11 0.35,0.12 0.35,0.11 0.35,0.12 0.34,0.12 0.35,0.11 0.35,0.11 0.35,0.11 0.35,0.11 0.35,0.1 0.35,0.1 0.35,0.1 0.35,0.09 0.35,0.09 0.35,0.09 0.35,0.08 0.34,0.07 0.35,0.07 0.35,0.08 0.35,0.06 0.35,0.07 0.35,0.06 0.35,0.06 0.35,0.07 0.35,0.07 0.35,0.07 0.35,0.08 0.35,0.09 0.34,0.1 0.35,0.12 0.35,0.13 0.35,0.15 0.35,0.18 0.35,0.2 0.35,0.23 0.35,0.27 0.35,0.31 0.35,0.34 0.35,0.39 0.35,0.43 0.34,0.48 0.35,0.53 0.35,0.58 0.35,0.63 0.35,0.68 0.35,0.73 0.35,0.77 0.35,0.82 0.35,0.85 0.35,0.89 0.35,0.92 0.35,0.94 0.34,0.95 0.35,0.95 0.35,0.95 0.35,0.94 0.35,0.92 0.35,0.89 0.35,0.84 0.35,0.8 0.35,0.74 0.35,0.68 0.35,0.6 0.35,0.54 0.34,0.45 0.35,0.38 0.35,0.29 0.35,0.21 0.35,0.13 0.35,0.04 0.35,-0.03 0.35,-0.09 0.35,-0.15 0.35,-0.2 0.35,-0.23 0.35,-0.27 0.34,-0.29 0.35,-0.29 0.35,-0.27 0.35,-0.24 0.35,-0.21 0.35,-0.15 0.35,-0.09 0.35,-0.02 0.35,0.06 0.35,0.16 0.35,0.25 0.35,0.34 0.35,0.46 0.34,0.55 0.35,0.64 0.35,0.71 0.35,0.79 0.35,0.84 0.35,0.89 0.35,0.95 0.35,0.96 0.35,0.96 0.35,0.93 0.35,0.9 0.35,0.85 0.34,0.8 0.35,0.73 0.35,0.63 0.35,0.52 0.35,0.42 0.35,0.31 0.35,0.21 0.35,0.12 0.35,0.01 0.35,-0.13 0.35,-0.21 0.35,-0.28 0.34,-0.33 0.35,-0.38 0.35,-0.41 0.35,-0.45 0.35,-0.46 0.35,-0.47 0.35,-0.46 0.35,-0.44 0.35,-0.41 0.35,-0.39 0.35,-0.37 0.35,-0.34 0.34,-0.32 0.35,-0.32 0.35,-0.31 0.35,-0.31 0.35,-0.31 0.35,-0.32 0.35,-0.34 0.35,-0.35 0.35,-0.37 0.35,-0.4 0.35,-0.42 0.35,-0.43 0.34,-0.44 0.35,-0.44 0.35,-0.45 0.35,-0.44 0.35,-0.43 0.35,-0.41 0.35,-0.39 0.35,-0.36 0.35,-0.33 0.35,-0.3 0.35,-0.26 0.35,-0.23 0.34,-0.2 0.35,-0.17 0.35,-0.16 0.35,-0.14 0.35,-0.13 0.35,-0.14 0.35,-0.15 0.35,-0.15 0.35,-0.18 0.35,-0.2 0.35,-0.22 0.35,-0.28 0.34,-0.31 0.35,-0.35 0.35,-0.38 0.35,-0.43 0.35,-0.47 0.35,-0.52 0.35,-0.55 0.35,-0.58 0.35,-0.61 0.35,-0.64 0.35,-0.67 0.35,-0.7 0.34,-0.7 0.35,-0.72 0.35,-0.72 0.35,-0.74 0.35,-0.74 0.35,-0.74 0.35,-0.73 0.35,-0.73 0.35,-0.71 0.35,-0.71 0.35,-0.7 0.35,-0.67 0.34,-0.66 0.35,-0.63 0.35,-0.62 0.35,-0.59 0.35,-0.57 0.35,-0.54 0.35,-0.52 0.35,-0.49 0.35,-0.46 0.35,-0.43 0.35,-0.41 0.35,-0.38 0.34,-0.35 0.35,-0.33 0.35,-0.3 0.35,-0.28 0.35,-0.25 0.35,-0.23 0.35,-0.22 0.35,-0.19 0.35,-0.17 0.35,-0.16 0.35,-0.15 0.35,-0.13 0.34,-0.12 0.35,-0.1 0.35,-0.1 0.35,-0.09 0.35,-0.08 0.35,-0.07 0.35,-0.07 0.35,-0.06 0.35,-0.06 0.35,-0.05 0.35,-0.05 0.35,-0.04 0.34,-0.05 0.35,-0.04 0.35,-0.03 0.35,-0.04 0.35,-0.03 0.35,-0.04 0.35,-0.03 0.35,-0.02 0.35,-0.03 0.35,-0.03 0.35,-0.02 0.35,-0.03 0.34,-0.02 0.35,-0.02 0.35,-0.02 0.35,-0.02 0.35,-0.02 0.35,-0.02 0.35,-0.02 0.35,-0.01 0.35,-0.02 0.35,-0.01 0.35,-0.02 0.35,-0.01 0.34,-0.01 0.35,-0.02 0.35,-0.01 0.35,-0.01 0.35,-0.01 0.35,-0.01 0.35,-0.01 h 0.35 l 0.35,-0.01 0.35,-0.01 0.35,-0.01 h 0.35 l 0.34,-0.01 0.35,-0.01 h 0.35 l 0.35,-0.01 h 0.35 0.35 l 0.35,-0.01 h 0.35 l 0.35,-0.01 h 0.35 0.35 0.35 l 0.34,-0.01 h 0.35 0.35 0.35 l 0.35,-0.01 h 0.35 0.35 0.35 0.35 0.35 0.35 l 0.35,-0.01 h 0.34 0.35 0.35 0.35 0.35 0.35 0.35 0.35 0.35 l 0.35,-0.01 h 0.35 0.35 0.34 0.35 0.35 0.35 0.35 0.35 l 0.35,-0.01 h 0.35 0.35 0.35 0.35 l 0.35,-0.01 h 0.35 0.34 0.35 l 0.35,-0.01 h 0.35 0.35 0.35 l 0.35,-0.01 h 0.35 0.35 l 0.35,-0.01 h 0.35 l 0.35,-0.01 h 0.34 l 0.35,-0.01 h 0.35 l 0.35,-0.01 h 0.35 l 0.35,-0.01 h 0.35 l 0.35,-0.01 h 0.35 l 0.35,-0.01 0.35,-0.01 h 0.35 l 0.34,-0.01 c 0,0 -141.6074,-1.07 -154.78,-1.07 z"
   style="fill:#ff00ff;fill-opacity:0.6;fill-rule:nonzero;stroke:#000000;stroke-width:0.75;stroke-linecap:round;stroke-linejoin:round;stroke-miterlimit:10;stroke-dasharray:none;stroke-opacity:1"
   id="path238"
   inkscape:connector-curvature="0"
   sodipodi:nodetypes="cccccccccccccccccccccccccccccccccccccccccccccccccccccccccccccccccccccccccccccccccccccccccccccccccccccccccccccccccccccccccccccccccccccccccccccccccccccccccccccccccccccccccccccccccccccccccccccccccccccccccccccccccccccccccccccccccccccccccccccccccccccccccccccccccccccccccccccccccccccccccccccccccccccccccccccccccccccccccccccccccccccccccccccccccccccccccccccccccccccccccccccccccccccccccccccccccccccccccccccccccccccccccccccccccccccccccccccccccccccccccc" /><path
   style="fill:none;stroke:#000000;stroke-width:0.67050004;stroke-linecap:round;stroke-linejoin:round;stroke-miterlimit:10;stroke-dasharray:none;stroke-opacity:1"
   d="m 296.23,387.06 c -0.51296,1.88664 3.57268,1.19861 4.64,1.99 5.37762,1.92876 6.38162,8.34434 7.46291,13.22216 3.46269,18.44313 3.92837,37.31274 7.3618,55.75532 0.12522,1.14748 1.22465,5.00593 2.28529,2.43252 2.37864,-9.10376 2.69035,-18.60009 3.84,-27.91 1.40022,-11.92604 2.004,-24.04722 5.09272,-35.6945 0.66267,-2.62596 2.4758,-6.14588 5.73728,-5.3755 4.08752,0.99067 8.01859,2.61078 12.22,3.16 5.26436,1.15413 6.8299,7.1262 8.61908,11.46211 1.60074,3.78363 2.39286,8.19867 5.34092,11.21789 2.65733,1.79707 4.39217,-3.65351 6.99,-1.68 3.49558,4.06755 3.44065,10.1624 6.98,14.18 2.10723,1.16095 3.34482,-2.02885 4.54,-3.24 2.44899,-2.89002 5.58817,-5.13306 7.68,-8.35 1.92107,-3.18675 6.37832,-2.91084 8.23462,-6.14477 4.59635,-6.57796 6.17399,-15.19529 12.36538,-20.63523 4.4623,-3.09308 10.21169,-2.54488 15.37,-2.99 10.00263,-0.32471 20.01545,-0.092 30.02,-0.33"
   id="path240"
   inkscape:connector-curvature="0"
   sodipodi:nodetypes="ccccccccccccccccccc" /><text
   id="text246"
   style="font-variant:normal;font-weight:normal;font-size:8px;font-family:Helvetica;-inkscape-font-specification:Helvetica;writing-mode:lr-tb;fill:#000000;fill-opacity:1;fill-rule:nonzero;stroke:none"
   transform="scale(1,-1)"
   x="421.82999"
   y="-454.35999"><tspan
     sodipodi:role="line"
     y="-454.35999"
     x="421.82999"
     id="tspan961"
     style="line-height:1.5">n=117</tspan><tspan
     sodipodi:role="line"
     y="-442.35999"
     x="421.82999"
     id="tspan1989"
     style="line-height:1.5">σ=0.25%</tspan></text>



<path
   d="m 296.80676,316.44818 h 7.56128 0.77839 0.76983 0.76983 0.76983 0.76984 0.76983 0.76983 0.76983 0.76984 l 0.77838,24.4379 0.76983,-11.08559 0.76984,-5.44015 0.76983,-7.55291 0.76983,9.80254 0.76983,-10.16179 0.76984,0.0257 0.76983,32.69222 0.77839,-32.63234 0.76983,-0.0855 0.76983,63.64803 0.76983,-63.64803 0.76983,15.02028 0.76984,20.95655 0.76983,-35.97683 h 0.76983 l 0.76983,3.45569 0.77839,-3.45569 h 0.76983 0.76984 0.76983 0.76983 0.76983 0.76984 0.76983 0.76983 0.77839 0.76983 0.76983 l 0.76983,0.0599 0.76984,-0.0599 h 0.76983 0.76983 0.76983 0.76984 l 0.77838,12.46273 0.76983,-12.46273 h 0.76984 0.76983 l 0.76983,18.25358 0.76983,-18.25358 0.76984,0.0342 0.76983,0.15397 0.77839,-0.18818 0.76983,6.69754 0.76983,-6.69754 h 0.76983 l 0.76983,8.21154 0.76984,-8.21154 h 0.76983 0.76983 0.76983 0.77839 l 0.76983,14.14781 0.76984,-14.14781 h 0.76983 l 0.76983,11.71 0.76983,3.71231 0.76984,3.67809 0.76983,-5.68821 0.76983,-11.20534 0.77839,11.59026 0.76983,-13.51484 0.76983,19.26292 0.76983,-19.3399 0.76984,5.32039 0.76983,7.52725 0.76983,-12.08636 0.76983,0.49611 0.76984,-1.46268 0.77838,4.08011 0.76983,-3.8235 0.76984,-0.16252 0.76983,7.23642 0.76983,12.12914 0.76983,4.19986 0.76984,-15.7559 0.76983,6.38961 0.77839,-14.2419 0.76983,38.05538 0.76983,-25.30182 0.76983,2.52334 0.76983,-14.54128 0.76984,14.95185 0.76983,-14.69524 0.76983,16.02962 0.76983,-16.59417 0.77839,21.83758 0.76983,-21.62373 0.76984,5.71386 0.76983,22.0001 0.76983,-19.22014 0.76983,-6.9456 0.76984,11.10269 0.76983,-11.17968 0.76983,-1.89892 0.77839,8.93006 0.76983,-0.6843 0.76983,-3.43003 0.76983,3.42148 0.76984,-8.50237 0.76983,7.80952 0.76983,4.5249 0.76983,23.77072 0.76984,-34.2661 0.77838,-1.83904 h 0.76983 l 0.76984,3.19908 0.76983,0.14541 0.76983,21.78626 0.76983,-12.67657 0.76984,-10.77766 0.76983,3.94325 0.77839,-5.61977 h 0.76983 0.76983 0.76983 l 0.76983,6.87717 0.76984,-5.6711 0.76983,-1.20607 h 0.76983 0.76983 l 0.77839,0.0513 0.76983,8.99849 0.76984,-8.56225 0.76983,-0.48756 h 0.76983 0.76983 0.76984 0.76983 0.76983 0.77839 0.76983 0.76983 0.76983 0.76984 0.76983 0.76983 l 0.76983,0.009 0.76984,5.2092 0.77838,-2.46346 0.76983,-2.75429 h 0.76984 0.76983 0.76983 0.76983 0.76984 0.76983 0.77838 0.76984 0.76983 0.76983 0.76983 0.76984 0.76983 0.76983 0.76983 0.77839 0.76983 0.76984 0.76983 0.76983 l 0.76983,0.009 0.76984,2.55756 0.76983,3.2504 0.76983,-5.71387 0.77839,-0.10264 h 0.76983 0.76983 0.76983 0.76984 0.76983 0.76983 0.76983 0.76984 0.77838 0.76983 5.96268 z"
   style="fill:#00ff00;fill-opacity:1;stroke:#000000;stroke-width:0.67050004;stroke-linecap:round;stroke-linejoin:round;stroke-miterlimit:10;stroke-dasharray:none;stroke-opacity:1"
   id="path256"
   inkscape:connector-curvature="0"
   sodipodi:nodetypes="cccccccccccccccccccccccccccccccccccccccccccccccccccccccccccccccccccccccccccccccccccccccccccccccccccccccccccccccccccccccccccccccccccccccccccccccccccccccccccccccccccccccccccccccccccccccccccccc" />


<path
   d="m 298.17311,229.73234 v 0.0537 l 0.31304,0.009 h 0.31304 l 0.31304,0.009 0.31304,0.009 0.30409,0.009 0.31304,0.009 0.31304,0.009 0.31304,0.0179 0.31304,0.009 0.31303,0.0179 0.31304,0.0179 0.31304,0.0179 0.31304,0.0268 0.31304,0.0268 0.31304,0.0268 0.31304,0.0358 0.30409,0.0358 0.31304,0.0537 0.31304,0.0537 0.31304,0.0626 0.31303,0.0716 0.31304,0.0894 0.31304,0.10733 0.31304,0.11627 0.31304,0.15205 0.31304,0.16994 0.31304,0.21465 0.31303,0.25043 0.3041,0.3041 0.31304,0.3667 0.31304,0.4472 0.31303,0.53663 0.31304,0.64397 0.31304,0.76024 0.31304,0.91228 0.31304,1.06433 0.31304,1.23427 0.31304,1.41314 0.31303,1.60097 0.31304,1.79774 0.3041,1.98556 0.31304,2.20021 0.31303,2.40592 0.31304,2.62058 0.31304,2.79946 0.31304,2.98729 0.31304,3.12144 0.31304,3.23771 0.31304,3.29138 0.31303,3.27349 0.31304,3.20193 0.31304,3.07673 0.3041,2.91573 0.31303,2.62952 0.31304,2.22705 0.31304,1.81562 0.31304,1.65463 0.31304,1.77985 0.31304,2.03922 0.31304,2.10183 0.31303,1.69935 0.31304,0.72446 0.31304,-0.62607 0.31304,-2.01239 0.30409,-3.01412 0.31304,-3.40765 0.31304,-3.20193 0.31304,-2.71002 0.31304,-2.22705 0.31304,-1.914 0.31304,-1.80668 0.31303,-1.88718 0.31304,-2.11972 0.31304,-2.42381 0.31304,-2.76368 0.31304,-3.04095 0.30409,-3.21983 0.31304,-3.2556 0.31304,-3.16616 0.31304,-2.9515 0.31304,-2.6653 0.31304,-2.33438 0.31303,-2.03028 0.31304,-1.72618 0.31304,-1.47575 0.31304,-1.25216 0.31304,-1.06433 0.31304,-0.90334 0.30409,-0.77812 0.31304,-0.6708 0.31304,-0.58136 0.31304,-0.50086 0.31304,-0.42931 0.31303,-0.37564 0.31304,-0.31304 0.31304,-0.26832 0.31304,-0.23254 0.31304,-0.17888 0.31304,-0.15205 0.31304,-0.11627 0.30409,-0.0894 0.31304,-0.0716 0.31304,-0.0447 0.31304,-0.0268 0.31303,-0.009 h 0.31304 l 0.31304,0.0179 0.31304,0.0268 0.31304,0.0268 0.31304,0.0537 0.31304,0.0537 0.31303,0.0626 0.3041,0.0716 0.31304,0.0716 0.31304,0.0984 0.31304,0.0984 0.31303,0.10733 0.31304,0.12521 0.31304,0.13416 0.31304,0.15205 0.31304,0.16993 0.31304,0.18783 0.31303,0.21465 0.31304,0.2236 0.3041,0.25043 0.31304,0.26832 0.31304,0.28621 0.31303,0.30409 0.31304,0.31304 0.31304,0.33093 0.31304,0.33987 0.31304,0.33987 0.31304,0.35775 0.31304,0.34882 0.31303,0.3667 0.31304,0.3667 0.3041,0.37565 0.31304,0.38459 0.31303,0.40248 0.31304,0.42036 0.31304,0.42931 0.31304,0.42931 0.31304,0.42037 0.31304,0.40248 0.31304,0.35776 0.31303,0.31304 0.31304,0.26831 0.31304,0.20572 0.3041,0.16099 0.31303,0.12521 0.31304,0.0894 0.31304,0.0894 0.31304,0.0805 0.31304,0.11627 0.31304,0.17888 0.31304,0.25043 0.31303,0.32198 0.31304,0.37565 0.31304,0.42036 0.31304,0.4472 0.30409,0.45614 0.31304,0.4472 0.31304,0.42931 0.31304,0.39354 0.31304,0.33987 0.31304,0.25937 0.31304,0.15205 0.31303,0.0447 0.31304,-0.0447 0.31304,-0.10733 0.31304,-0.10733 0.31304,-0.0715 0.30409,0.0179 0.31304,0.15205 0.31304,0.33987 0.31304,0.5098 0.31304,0.6708 0.31304,0.79601 0.31303,0.84968 0.31304,0.85862 0.31304,0.79601 0.31304,0.67974 0.31304,0.51875 0.31304,0.33093 0.30409,0.16099 0.31304,0.0447 0.31304,-0.0537 0.31304,-0.0894 0.31304,-0.009 0.31303,0.0984 0.31304,0.25938 0.31304,0.42931 0.31304,0.60819 0.31304,0.78707 0.31304,0.90334 0.31304,0.98383 0.31303,0.96595 0.3041,0.8944 0.31304,0.67974 0.31304,0.42931 0.31303,0.23254 0.31304,0.0805 0.31304,-0.0179 0.31304,-0.10733 0.31304,-0.16099 0.31304,-0.20571 0.31304,-0.23255 0.31303,-0.25937 0.31304,-0.24149 0.3041,-0.16993 0.31304,-0.0537 0.31303,0.11627 0.31304,0.31304 0.31304,0.50087 0.31304,0.67079 0.31304,0.77813 0.31304,0.75129 0.31304,0.71552 0.31303,0.59924 0.31304,0.42037 0.31304,0.23254 0.3041,0.0537 0.31303,-0.0984 0.31304,-0.20571 0.31304,-0.24149 0.31304,-0.25043 0.31304,-0.2236 0.31304,-0.18782 0.31304,-0.16099 0.31303,-0.16099 0.31304,-0.18783 0.31304,-0.21465 0.31304,-0.25043 0.30409,-0.21466 0.31304,-0.11627 0.31304,0.10733 0.31304,0.34881 0.31304,0.61714 0.31304,0.77812 0.31304,0.80496 0.31303,0.63502 0.31304,0.34881 0.31304,0.0179 0.31304,-0.25937 0.31304,-0.39354 0.30409,-0.42036 0.31304,-0.35776 0.31304,-0.25938 0.31304,-0.20571 0.31304,-0.21465 0.31304,-0.25938 0.31303,-0.31304 0.31304,-0.31304 0.31304,-0.25043 0.31304,-0.13416 0.31304,0.0268 0.31304,0.16099 0.30409,0.25043 0.31304,0.26832 0.31304,0.25937 0.31304,0.2236 0.31304,0.23254 0.31304,0.29515 0.31303,0.38459 0.31304,0.49192 0.31304,0.55453 0.31304,0.54558 0.31304,0.4472 0.31304,0.26832 0.30409,0.0447 0.31304,-0.16994 0.31304,-0.33987 0.31304,-0.45614 0.31304,-0.51875 0.31303,-0.50086 0.31304,-0.42037 0.31304,-0.38459 0.31304,-0.30409 0.31304,-0.29515 0.31304,-0.33988 0.31304,-0.47403 0.30409,-0.63502 0.31304,-0.76918 0.31304,-0.85862 0.31304,-0.86756 0.31303,-0.78707 0.31304,-0.66185 0.31304,-0.51875 0.31304,-0.41142 0.31304,-0.33987 0.31304,-0.3041 0.31304,-0.25937 0.31303,-0.28621 0.3041,-0.2236 0.31304,-0.16993 0.31304,-0.12522 0.31303,-0.11627 0.31304,-0.13416 0.31304,-0.15205 0.31304,-0.18782 0.31304,-0.21466 0.31304,-0.21465 0.31304,-0.21466 0.31303,-0.20571 0.31304,-0.17888 0.3041,-0.16993 0.31304,-0.20571 0.31303,-0.3041 0.31304,-0.34881 0.31304,-0.41142 0.31304,-0.47403 0.31304,-0.55453 0.31304,-0.59924 0.31304,-0.64397 0.31303,-0.6708 0.31304,-0.67974 0.31304,-0.68868 0.3041,-0.66185 0.31303,-0.61714 0.31304,-0.53664 0.31304,-0.42931 0.31304,-0.32198 0.31304,-0.2236 0.31304,-0.1431 0.31304,-0.0894 0.31303,-0.0715 0.31304,-0.0805 0.31304,-0.10732 0.31304,-0.15205 0.30409,-0.21466 0.31304,-0.27726 0.31304,-0.3667 0.31304,-0.42037 0.31304,-0.48297 0.31304,-0.51875 0.31304,-0.51875 0.31303,-0.50981 0.31304,-0.47403 0.31304,-0.43825 0.31304,-0.38459 0.31304,-0.34882 0.30409,-0.32198 0.31304,-0.2862 0.31304,-0.26832 0.31304,-0.25043 0.31304,-0.23255 0.31304,-0.2236 0.31303,-0.20571 0.31304,-0.20571 0.31304,-0.18782 0.31304,-0.18782 0.31304,-0.16994 0.31304,-0.17888 0.30409,-0.16099 0.31304,-0.16993 0.31304,-0.16994 0.31304,-0.17888 0.31304,-0.17888 0.31303,-0.19677 0.31304,-0.18782 0.31304,-0.20571 0.31304,-0.20571 0.31304,-0.20571 0.31304,-0.20571 0.31304,-0.21466 0.30409,-0.19677 0.31304,-0.19676 0.31304,-0.18783 0.31304,-0.18782 0.31303,-0.16993 0.31304,-0.16099 0.31304,-0.14311 0.31304,-0.1431 0.31304,-0.13416 0.31304,-0.11627 0.31304,-0.11627 0.31303,-0.10733 0.3041,-0.0984 0.31304,-0.0984 0.31304,-0.0984 0.31303,-0.0894 0.31304,-0.0894 0.31304,-0.0894 0.31304,-0.0894 0.31304,-0.0894 0.31304,-0.0805 0.31304,-0.0894 0.31303,-0.0894 0.31304,-0.0894 0.3041,-0.0894 0.31304,-0.0894 0.31304,-0.0894 0.31303,-0.0805 0.31304,-0.0894 0.31304,-0.0894 0.31304,-0.0805 0.31304,-0.0805 0.31304,-0.0805 0.31303,-0.0716 0.31304,-0.0805 0.31304,-0.0716 0.3041,-0.0626 0.31304,-0.0715 0.31303,-0.0537 0.31304,-0.0626 0.31304,-0.0537 0.31304,-0.0537 0.31304,-0.0447 0.31304,-0.0537 0.31304,-0.0358 0.31303,-0.0447 0.31304,-0.0358 0.31304,-0.0358 0.31304,-0.0358 0.30409,-0.0268 0.31304,-0.0268 0.31304,-0.0268 0.31304,-0.0268 0.31304,-0.0268 0.31304,-0.0179 0.31304,-0.0179 0.31303,-0.0179 0.31304,-0.0179 0.31304,-0.0179 0.31304,-0.0179 0.31304,-0.009 0.30409,-0.0179 0.31304,-0.0179 0.31304,-0.009 0.31304,-0.009 0.31304,-0.009 0.31304,-0.0179 0.31303,-0.009 0.31304,-0.009 0.31304,-0.009 0.31304,-0.009 0.31304,-0.009 0.31304,-0.009 0.30409,-0.009 h 0.31304 l 0.31304,-0.009 0.31304,-0.009 0.31304,-0.009 h 0.31303 l 0.31304,-0.009 0.31304,-0.009 h 0.31304 l 0.31304,-0.009 0.31304,-0.009 h 0.31304 l 0.30409,-0.009 h 0.31304 l 0.31304,-0.009 h 0.31304 l 0.31303,-0.009 h 0.31304 l 0.31304,-0.009 h 0.31304 l 0.31304,-0.009 h 0.31304 0.31304 l 0.31303,-0.009 h 0.3041 0.31304 l 0.31304,-0.009 h 0.31303 0.31304 l 0.31304,-0.009 c 48.71697,-0.27643 -97.43548,-0.0894 -146.15323,-0.0894 z"
   style="fill:#ff00ff;fill-opacity:0.6;fill-rule:nonzero;stroke:#000000;stroke-width:0.67079693;stroke-linecap:round;stroke-linejoin:round;stroke-miterlimit:10;stroke-dasharray:none;stroke-opacity:1"
   id="path464"
   inkscape:connector-curvature="0"
   sodipodi:nodetypes="ccccccccccccccccccccccccccccccccccccccccccccccccccccccccccccccccccccccccccccccccccccccccccccccccccccccccccccccccccccccccccccccccccccccccccccccccccccccccccccccccccccccccccccccccccccccccccccccccccccccccccccccccccccccccccccccccccccccccccccccccccccccccccccccccccccccccccccccccccccccccccccccccccccccccccccccccccccccccccccccccccccccccccccccccccccccccccccccccccccccccccccccccccccccccccccccccccccccccccccccccccccccccccccccccccccccccccccccccccccccccccccccccccccccccccccccccccccccc" /><path
   style="fill:none;stroke:#000000;stroke-width:0.67079693;stroke-linecap:round;stroke-linejoin:round;stroke-miterlimit:10;stroke-dasharray:none;stroke-opacity:1"
   d="m 296.67311,229.73234 c 3.41212,0.30473 10.01547,-0.42193 11.63459,3.63322 2.80317,7.24009 3.08757,15.15183 4.08823,22.7821 1.30104,12.10377 1.98693,24.29327 4.29891,36.26395 0.11267,1.07073 0.70888,5.47858 1.25637,2.59539 0.88694,-7.73156 1.47042,-15.50543 2.94792,-23.16058 1.69909,-11.25266 1.56052,-22.80466 4.44573,-33.8583 0.74889,-3.10035 3.21414,-6.58854 6.86896,-5.67053 5.52213,0.50777 8.28976,5.90892 11.55559,9.63284 1.36474,1.12245 3.50858,1.03222 4.24969,2.95329 0.86685,1.31472 1.9967,3.48515 3.87143,2.36833 2.01957,0.72292 1.91736,3.63726 2.94636,5.2903 0.34808,2.33036 3.19753,0.41563 3.59839,2.65702 1.10544,1.8599 0.8332,4.83255 2.81957,5.97839 1.37253,0.0334 2.81412,-2.71114 3.74752,-0.51879 0.85848,1.34255 0.90065,3.56315 2.49537,4.22158 1.36834,-0.774 2.6809,-1.74481 4.06055,-2.51327 1.50481,0.58675 0.9946,3.19609 2.50431,3.65809 1.07994,-1.29182 2.36883,-2.42863 3.74752,-3.38082 2.08455,0.64461 3.1372,2.7945 4.3736,4.40934 1.61599,-0.34496 1.88996,-2.7307 3.34487,-3.58765 1.70861,-2.65007 1.90392,-6.78212 5.39337,-7.90536 2.43571,-1.11238 4.59785,-2.86952 5.45219,-5.5132 1.00631,-1.93112 1.58437,-4.85426 4.23412,-5.02269 2.53391,-1.65213 3.11023,-5.23831 5.92985,-6.69009 3.74843,-1.94861 7.01089,-4.94235 11.24255,-5.84033 9.33052,-3.27742 19.33203,-2.43737 29.04104,-2.7114 0.41747,0.002 0.83458,-0.0168 1.25215,-0.009"
   id="path466"
   inkscape:connector-curvature="0"
   sodipodi:nodetypes="cccccccccccccccccccccccccccc" /><text
   id="text472"
   style="font-style:normal;font-variant:normal;font-weight:normal;font-stretch:normal;font-size:8px;font-family:Helvetica;-inkscape-font-specification:'Helvetica, Normal';font-variant-ligatures:normal;font-variant-caps:normal;font-variant-numeric:normal;font-feature-settings:normal;text-align:start;writing-mode:lr-tb;text-anchor:start;fill:#000000;fill-opacity:1;fill-rule:nonzero;stroke:none;stroke-width:0.89439589"
   transform="scale(1,-1)"
   x="424.08896"
   y="-291.64899"><tspan
     sodipodi:role="line"
     y="-291.64899"
     x="424.08896"
     style="font-style:normal;font-variant:normal;font-weight:normal;font-stretch:normal;font-size:8px;line-height:1.5;font-family:Helvetica;-inkscape-font-specification:'Helvetica, Normal';font-variant-ligatures:normal;font-variant-caps:normal;font-variant-numeric:normal;font-feature-settings:normal;text-align:start;writing-mode:lr-tb;text-anchor:start;stroke-width:0.89439589"
     id="tspan963">n=10000</tspan><tspan
     sodipodi:role="line"
     y="-279.64899"
     x="424.08896"
     style="font-style:normal;font-variant:normal;font-weight:normal;font-stretch:normal;font-size:8px;line-height:1.5;font-family:Helvetica;-inkscape-font-specification:'Helvetica, Normal';font-variant-ligatures:normal;font-variant-caps:normal;font-variant-numeric:normal;font-feature-settings:normal;text-align:start;writing-mode:lr-tb;text-anchor:start;stroke-width:0.89439589"
     id="tspan2019">σ=25%</tspan></text>



<g
   id="g1924"
   transform="translate(0,70.5)"
   style="stroke-width:0.67050004;stroke-miterlimit:10;stroke-dasharray:none"><path
     sodipodi:nodetypes="cccccccccccccccccccccccccccccccccccccccccccccccccccccccccccccccccccccccccccccccccccccccccccccccccccccccccccccccccccccccccccccccccccccccccccccccccccccccccccccccccccccccccccccccccccccccccccccccccccccczcc"
     inkscape:connector-curvature="0"
     id="path482"
     style="fill:#00ff00;fill-opacity:1;stroke:#000000;stroke-width:0.67050004;stroke-linecap:round;stroke-linejoin:round;stroke-miterlimit:10;stroke-dasharray:none;stroke-opacity:1"
     d="m 457.19587,94.588633 -16.07907,3.592565 -0.70596,0.125504 -0.70597,0.125505 -0.7138,0.133348 -0.70597,0.133349 -0.70596,0.141192 -0.70596,0.149037 -0.70596,0.156881 -0.70597,0.15688 -0.70596,0.156881 -0.70596,0.172568 -0.70596,0.172569 -0.71381,0.180413 -0.70596,0.188255 -0.70597,0.1961 -0.70596,0.1961 -0.70596,0.21179 -0.70596,0.21179 -0.70597,0.21963 -0.70596,0.21964 -0.70596,0.23532 -0.71381,0.24316 -0.70596,0.24317 -0.70596,0.25885 -0.70597,0.25885 -0.70596,0.2667 -0.70596,0.28238 -0.70596,0.28239 -0.70597,0.29023 -0.70596,0.29807 -0.71381,0.31376 -0.70596,0.31376 -0.70596,0.32161 -0.70596,0.32945 -0.70597,0.33729 -0.70596,0.35298 -0.70596,0.35298 -0.70596,0.36083 -0.70597,0.36867 -0.7138,0.37651 -0.70597,0.3922 -0.70596,0.39221 -0.70596,0.40004 -0.70596,0.40789 -0.70597,0.41573 -0.70596,0.42358 -0.70596,0.43142 -0.71381,0.43927 -0.70596,0.43926 -0.70596,0.45496 -0.70597,0.45495 -0.70596,0.4628 -0.70596,0.47064 -0.70596,0.47064 -0.70597,0.48633 -0.70596,0.47849 -0.71381,0.49417 -0.70596,0.49418 -0.70596,0.50201 -0.70596,0.50202 -0.70597,0.50202 -0.70596,0.50986 -0.70596,0.50986 -0.70597,0.51771 -0.70596,0.50986 -0.7138,0.51771 -0.70597,0.5177 -0.70596,0.51771 -0.70596,0.51771 -0.70597,0.5177 -0.70596,0.51771 -0.70596,0.50986 -0.70596,0.50986 -0.70597,0.50986 -0.7138,0.50202 -0.70597,0.49418 -0.70596,0.49417 -0.70596,0.48633 -0.70596,0.47848 -0.70597,0.47849 -0.70596,0.4628 -0.70596,0.45495 -0.71381,0.44711 -0.70596,0.43927 -0.70596,0.42358 -0.70597,0.41573 -0.70596,0.40004 -0.70596,0.39221 -0.70596,0.37651 -0.70597,0.35298 -0.70596,0.34514 -0.71381,0.32945 -0.70596,0.31376 -0.70596,0.29023 -0.70596,0.27454 -0.70597,0.25885 -0.70596,0.23532 -0.70596,0.21963 -0.70596,0.19611 -0.70597,0.17256 -0.7138,0.14904 -0.70597,0.12551 -0.70596,0.10981 -0.70596,0.0784 -0.70596,0.0549 -0.70597,0.0314 -0.70596,0.008 -0.70596,-0.0235 -0.70596,-0.0471 -0.71381,-0.0706 -0.70596,-0.10197 -0.70597,-0.12551 -0.70596,-0.14904 -0.70596,-0.18041 -0.70596,-0.21179 -0.70597,-0.23532 -0.70596,-0.25885 -0.71381,-0.29023 -0.70596,-0.32161 -0.70596,-0.33729 -0.70596,-0.37651 -0.70597,-0.3922 -0.70596,-0.43143 -0.70596,-0.4471 -0.70597,-0.47065 -0.70596,-0.50201 -0.7138,-0.52555 -0.70597,-0.54909 -0.70596,-0.57261 -0.70596,-0.59615 -0.70596,-0.61183 -0.70597,-0.63537 -0.70596,-0.65105 -0.70596,-0.67459 -0.70597,-0.68243 -0.7138,-0.69812 -0.70596,-0.7138 -0.70597,-0.7295 -0.70596,-0.72949 -0.70596,-0.73734 -0.70597,-0.73734 -0.70596,-0.73734 -0.70596,-0.72949 -0.70596,-0.72166 -0.71381,-0.70596 -0.70596,-0.68243 -0.70597,-0.6589 -0.70596,-0.61968 -0.70596,-0.58045 -0.70596,-0.52555 -0.70597,-0.4628 -0.70596,-0.38436 -0.71381,-0.29023 -0.70596,-0.18825 -0.70596,-0.0706 -0.70596,0.0706 -0.70597,0.22747 -0.70596,0.40005 -0.70596,0.59614 -0.70596,0.80794 -0.70597,1.04325 -0.7138,1.28643 -0.70597,1.54527 -0.70596,1.80413 -0.70596,2.07866 -0.70596,2.32968 -0.70597,2.57284 -0.70596,2.80032 -0.70596,2.97289 -0.70596,3.09839 -0.71381,3.16114 -0.70596,3.1533 -0.70597,3.05133 -0.70596,2.84738 -0.70596,2.54931 -0.70596,2.12574 -0.70597,1.62371 -0.70596,1.00403 -0.70596,0.32161 -0.71381,-0.43927 -0.70596,-1.22366 -0.70596,-2.01592 -0.70597,-2.76894 -0.70596,-3.47491 -0.70596,-4.0632 -0.70596,-4.53385 -0.70597,-4.83193 -0.7138,-4.97311 -0.70597,-4.92605 -0.70596,-4.71426 -0.70596,-4.35344 -0.70596,-3.89848 -0.70597,-3.35725 -0.70596,-2.80031 -0.70596,-2.2434 -0.70597,-1.717839 -0.7138,-1.231513 c 0,0 0.9546,1.091895 -0.70596,-0.807935 -1.66057,-1.89983 -4.59661,-2.33752 -4.59661,-2.33752 h 159.93073" /></g><rect
   style="fill:none;fill-opacity:1;stroke:#000000;stroke-width:0.75;stroke-miterlimit:4;stroke-dasharray:none;stroke-dashoffset:0;stroke-opacity:1"
   id="rect1907"
   width="189.30461"
   height="157.39934"
   x="269.28049"
   y="-467.09317"
   transform="scale(1,-1)" /><rect
   transform="scale(1,-1)"
   y="-303.60898"
   x="269.26468"
   height="145.94507"
   width="189.33624"
   id="rect1909"
   style="fill:none;fill-opacity:1;stroke:#000000;stroke-width:0.75;stroke-miterlimit:4;stroke-dasharray:none;stroke-dashoffset:0;stroke-opacity:1" /><text
   xml:space="preserve"
   style="font-style:normal;font-weight:normal;font-size:12.0000003px;line-height:1.25;font-family:sans-serif;text-align:end;letter-spacing:0px;word-spacing:0px;text-anchor:end;fill:#000000;fill-opacity:1;stroke:none;stroke-width:0.75;"
   x="273.36749"
   y="-519.58325"
   id="text1928"
   transform="scale(1,-1)"><tspan
     sodipodi:role="line"
     id="tspan1926"
     x="273.36749"
     y="-507.19653"
     style="font-style:normal;font-variant:normal;font-weight:normal;font-stretch:normal;font-size:12.0000003px;font-family:sans-serif;-inkscape-font-specification:'sans-serif, Normal';font-variant-ligatures:normal;font-variant-caps:normal;font-variant-numeric:normal;font-feature-settings:normal;text-align:end;writing-mode:lr-tb;text-anchor:end;stroke-width:0.75;" /></text>



<text
   xml:space="preserve"
   style="font-style:normal;font-weight:normal;font-size:14px;line-height:1.25;font-family:sans-serif;text-align:end;letter-spacing:0px;word-spacing:0px;text-anchor:end;fill:#000000;fill-opacity:1;stroke:none;stroke-width:0.75"
   x="277.06317"
   y="-514.77429"
   id="text1928-9"
   transform="scale(1,-1)"><tspan
     sodipodi:role="line"
     id="tspan1926-7"
     x="277.06317"
     y="-514.77429"
     style="font-size:10px;stroke-width:0.75">A</tspan></text>



<text
   transform="scale(1,-1)"
   id="text1950"
   y="-453.27429"
   x="269.65692"
   style="font-style:normal;font-weight:normal;font-size:14px;line-height:1.25;font-family:sans-serif;text-align:start;letter-spacing:0px;word-spacing:0px;text-anchor:start;fill:#000000;fill-opacity:1;stroke:none;stroke-width:0.75"
   xml:space="preserve"><tspan
     style="font-size:10px;text-align:start;text-anchor:start;stroke-width:0.75"
     y="-453.27429"
     x="269.65692"
     id="tspan1948"
     sodipodi:role="line">B</tspan></text>



<text
   xml:space="preserve"
   style="font-style:normal;font-weight:normal;font-size:14px;line-height:1.25;font-family:sans-serif;text-align:start;letter-spacing:0px;word-spacing:0px;text-anchor:start;fill:#000000;fill-opacity:1;stroke:none;stroke-width:0.75"
   x="269.98505"
   y="-367.77429"
   id="text1954"
   transform="scale(1,-1)"><tspan
     sodipodi:role="line"
     id="tspan1952"
     x="269.98505"
     y="-367.77429"
     style="font-size:10px;text-align:start;text-anchor:start;stroke-width:0.75">C</tspan></text>



<text
   transform="scale(1,-1)"
   id="text1958"
   y="-291.27429"
   x="269.98505"
   style="font-style:normal;font-weight:normal;font-size:14px;line-height:1.25;font-family:sans-serif;text-align:start;letter-spacing:0px;word-spacing:0px;text-anchor:start;fill:#000000;fill-opacity:1;stroke:none;stroke-width:0.75"
   xml:space="preserve"><tspan
     style="font-size:10px;text-align:start;text-anchor:start;stroke-width:0.75"
     y="-291.27429"
     x="269.98505"
     id="tspan1956"
     sodipodi:role="line">D</tspan></text>



<text
   xml:space="preserve"
   style="font-style:normal;font-weight:normal;font-size:14px;line-height:1.25;font-family:sans-serif;text-align:start;letter-spacing:0px;word-spacing:0px;text-anchor:start;fill:#000000;fill-opacity:1;stroke:none;stroke-width:0.75"
   x="271.11005"
   y="-210.27429"
   id="text1962"
   transform="scale(1,-1)"><tspan
     sodipodi:role="line"
     id="tspan1960"
     x="271.11005"
     y="-210.27429"
     style="font-size:10px;text-align:start;text-anchor:start;stroke-width:0.75">E</tspan></text>



<text
   xml:space="preserve"
   style="font-style:normal;font-weight:normal;font-size:14px;line-height:1.25;font-family:sans-serif;text-align:end;letter-spacing:0px;word-spacing:0px;text-anchor:end;fill:#000000;fill-opacity:1;stroke:none;stroke-width:0.75"
   x="274.41992"
   y="-211.61319"
   id="text1966"
   transform="scale(1,-1)"><tspan
     sodipodi:role="line"
     id="tspan1964"
     x="274.41992"
     y="-199.22647"
     style="stroke-width:0.75" /></text>



</g></svg>